# xmcd CD database file
#
# Track frame offsets:
#	150
#	23970
#	49966
#	71881
#	90220
#	114138
#	132760
#	158341
#	180251
#	201020
#	224274
#	246902
#	268597
#	288766
#	311945
#	324228
#
# Disc length: 4610 seconds
#
# Revision: 0
# Processed by: cddbd v1.5PL3 Copyright (c) Steve Scherf et al.
# Submitted via: CDex 1.50
#
DISCID=d6120010
DTITLE=Varios Interpretes - Salsa -Maria Cecilia 4
DYEAR=2004
DGENRE=Salsa
TTITLE0=Mujer de Novela -NIche
TTITLE1=Amor con Amor -Salsa Loca
TTITLE2=Te Recordare -Jerry Rivera
TTITLE3=Contigo -Puerto Rican Power
TTITLE4=Antidoto y Veneno -Eddie Santiago
TTITLE5=Desde Que Tu No Estas -Jerry Rivera
TTITLE6=Duele mas -Niche
TTITLE7=Llorare -Jerry Rivera
TTITLE8=Me atrapa la noche -Edgar Joel
TTITLE9=Yo Te Quiero -Marc Anthony
TTITLE10=Me fascina esa mujer -Omar Alfanno
TTITLE11=No me acostumbro -Rey Ruiz
TTITLE12=Tu No Le Amas Le Temes -Luis Enrique
TTITLE13=Que Locura Enamorarme de Ti -Eddie Santiago
TTITLE14=Caminando -Ruben Blades
TTITLE15=Celos -Marc Anthony
EXTD=YEAR: 2004
EXTT0=
EXTT1=
EXTT2=
EXTT3=
EXTT4=
EXTT5=
EXTT6=
EXTT7=
EXTT8=
EXTT9=
EXTT10=
EXTT11=
EXTT12=
EXTT13=
EXTT14=
EXTT15=
PLAYORDER=
